<svg id="Capa_1" data-name="Capa 1" xmlns="http://www.w3.org/2000/svg" viewBox="0 0 1653.86 1143.21"><defs><style>.cls-1{fill:#e30613;}</style></defs><path class="cls-1" d="M417.25,562.75c89.19-5.12,178.6-6.42,267.91-7.73,243.38-3.57,487.47-7.11,729.48,18.93,45.3,4.87,91.46,11.06,132.26,31.34,89.06,44.26,106.34,154.93,114.95,244.34,6.15,64,15.47,129.84,15.47,193.95-2.33,31.45-.5,63.21-.5,94.83,0,89.39-7,177.25-14.39,266.71-9.84,118.71-46.26,212.82-167.65,252.8-54.82,18-113.18,21.87-170.81,25q-279,15.09-558.68,12.47-139.72-1.3-279.35-7c-86-3.53-176.9-.32-260.17-24.12-112.63-32.73-164.61-111.39-179.39-223.27-17-128.41-25.45-258.09-22.25-387.63,1.63-65.72,6.26-131.37,14.34-196.62C45.38,800.93,50,737.27,77.64,687.15c50.55-91.53,154.05-109,248.33-117.67Q371.56,565.3,417.25,562.75Zm280.87,764.93c3.52,20.94,12.59,33.24,33.1,20.57l303.31-187.35c18.07-11.16,55.65-23.8,49.07-44.81-4.7-15-45.84-34.64-58.72-42.63-37.13-23-218.71-129.78-266-159.19-26.55-16.52-51.69-44.44-58.09-.3C694.18,959.8,692.93,1296.86,698.12,1327.68Z" transform="translate(-23.47 -552.55)"/></svg>