<?xml version="1.0" encoding="utf-8"?>
<!-- Generator: Adobe Illustrator 25.2.0, SVG Export Plug-In . SVG Version: 6.00 Build 0)  -->
<svg version="1.1" xmlns="http://www.w3.org/2000/svg" xmlns:xlink="http://www.w3.org/1999/xlink" x="0px" y="0px"
	 viewBox="0 0 23.8 21.5" style="enable-background:new 0 0 23.8 21.5;" xml:space="preserve">
<style type="text/css">
	.st0{fill:#CCCCCC;}
	.st1{fill:#FFFFFF;stroke:#000000;}
	.st2{fill:#FFFFFF;}
</style>
<g id="Capa_2">
	<path class="st0" d="M2.6,14.1c-0.7-0.9-0.4-2.1,0.6-6c1.5-5.5,1.5-5.9,2.1-6.2C6.6,1,7.9,1.7,14,3.3c6,1.5,7.3,1.6,8,2.9
		c0.5,1-0.1,2.9-1.3,6.7c-1.2,3.9-1.9,5.8-2.9,6.2c-1.4,0.6-2-0.8-7.6-2.5c-4.2-1.3-4.4-1.4-4.4-1.4C3.6,14.6,3.1,14.7,2.6,14.1z"/>
</g>
<g id="Capa_1">
	<g>
		<path id="svg_1" class="st1" d="M5.7,2.2c1.2-0.2,2.8-0.3,4.2,0c1.6,0.3,2.8,0.9,3.3,2l-3.4,12c-0.9-1-2.2-1.4-3.5-1.7
			c-1.4-0.2-2.9-0.2-4.1-0.1L5.7,2.2z M14.4,4.4c1-0.6,2.4-0.5,3.9,0.1C19.7,5.1,21,6,21.9,6.7L18.4,19c-0.9-0.7-2.2-1.6-3.5-2.1
			c-1.2-0.5-2.6-0.8-3.9-0.4L14.4,4.4L14.4,4.4z M14.1,3.1c-0.8-1.4-2.5-2-4-2.3C8.3,0.6,6.4,0.7,5.1,1C4.9,1,4.7,1.2,4.6,1.4
			L0.8,15.1c-0.1,0.3,0.1,0.7,0.4,0.8c0.1,0,0.2,0,0.3,0c1.2-0.2,3-0.3,4.6-0.1c1.7,0.3,3,1,3.4,2.1c0.1,0.3,0.5,0.5,0.8,0.3
			c0,0,0.1,0,0.1-0.1c1-0.8,2.5-0.7,4,0c1.5,0.6,3,1.7,3.9,2.5c0.3,0.2,0.6,0.2,0.9-0.1c0.1-0.1,0.1-0.2,0.1-0.2l3.9-13.7
			c0.1-0.2,0-0.5-0.2-0.7c-0.9-0.9-2.5-2-4.2-2.7C17.3,2.7,15.6,2.4,14.1,3.1L14.1,3.1z"/>
		<line id="svg_14" class="st2" x1="15" y1="13" x2="15" y2="13"/>
		<g transform="rotate(21.3247 16.1667 16.5856)">
			<path class="st1" d="M16.3,11.7c0,2.4-2.2,4.3-4.9,4.3s-4.9-1.9-4.9-4.3s2.2-4.3,4.9-4.3S16.3,9.3,16.3,11.7z M10.6,10.2
				c-0.1-0.1-0.3-0.1-0.4,0.1c0,0-0.1,0.1-0.1,0.2v2.7c0,0.1,0.1,0.3,0.3,0.3c0.1,0,0.1,0,0.2,0l2.1-1.3c0.1-0.1,0.2-0.3,0.1-0.4
				c0,0,0,0-0.1-0.1C12.8,11.5,10.6,10.2,10.6,10.2z"/>
		</g>
	</g>
</g>
</svg>
